# xmcd
#
# Track frame offsets: 
#        150
#        13547
#        28757
#        40648
#        63437
#        74940
#        92270
#        106508
#        121297
#        135518
#        150052
#        163414
#        182945
#        200113
#        215553
#        238085
#        251449
#        269198
#        287595
#        309826
#
# Disc length: 4350 seconds
#
# Revision: 0
# Processed by: cddbd v1.5.2PL0 Copyright (c) Steve Scherf et al.
# Submitted via: ExactAudioCopy v0.95a5
#
DISCID=1c10fc14
DTITLE=Jon Crosby - Generica Vol. 4-5 Disk Band
DYEAR=2009
DGENRE=Rock
TTITLE0=You Should Have Known I'd Leave
TTITLE1=Hotel Song
TTITLE2=Travelin Man
TTITLE3=You're The Same
TTITLE4=Everything Has Changed
TTITLE5=You Destroy Me
TTITLE6=You Are The One
TTITLE7=What Really Makes A Difference
TTITLE8=If She Wasn't Married
TTITLE9=Generica
TTITLE10=Until I Die
TTITLE11=Here's To All The People I Have Lost
TTITLE12=I Thought By Now
TTITLE13=I'm Afraid Of You
TTITLE14=You're The Same
TTITLE15=Lets Run Away
TTITLE16=There Are No Words
TTITLE17=It's Not You (It's Me)
TTITLE18=Tuesday Night In Austin
TTITLE19=She Found Out
EXTD=
EXTT0=
EXTT1=
EXTT2=
EXTT3=
EXTT4=
EXTT5=
EXTT6=
EXTT7=
EXTT8=
EXTT9=
EXTT10=
EXTT11=
EXTT12=
EXTT13=
EXTT14=
EXTT15=
EXTT16=
EXTT17=
EXTT18=
EXTT19=
PLAYORDER=
